<?xml version="1.0" encoding="utf-8"?>
<!-- Generator: Adobe Illustrator 19.0.0, SVG Export Plug-In . SVG Version: 6.00 Build 0)  -->
<svg version="1.1" id="collage_website_xA0_Image_1_"
	 xmlns="http://www.w3.org/2000/svg" xmlns:xlink="http://www.w3.org/1999/xlink" x="0px" y="0px" viewBox="202 70.9 1000 700"
	 style="enable-background:new 202 70.9 1000 700;" xml:space="preserve">
<style type="text/css">
	.st0{fill:#FFFFFF;fill-opacity:0;}
	.st1{opacity:0.72;enable-background:new    ;}
	.st2{font-family:'MinionPro-Regular';}
	.st3{font-size:12px;}
	.st4{fill-opacity:0;}
	.st5{font-size:9.0003px;}
	.st6{opacity:0;fill:#FFFFFF;}
	.st7{opacity:0;}
</style>
<g id="collage-website.psd_1_">
	
		<image style="overflow:visible;enable-background:new    ;" width="1000" height="700" id="collage-website" xlink:href="19504E45B9103A56.jpeg"  transform="matrix(1 0 0 1 202 70.89)">
	</image>
</g>
<polygon id="vejay" class="st0" points="497,148.9 484,148.9 460,148.9 460,193.9 497,193.9 "/>
<path id="chaveli" class="st0" d="M288,564.9v-30c0,0,12-14,37-14c0,0,26,2,69,22c0,0,14,5,10,45l-43,11l-73-23V564.9z"/>
<path id="martina" class="st0" d="M952,659.9c0,0-37,0-31,23c0,0,2,21,31,35h35c0,0,14-5,29-35C1016,682.9,1015,657.9,952,659.9z"/>
<text transform="matrix(0.9892 -0.1466 0.1466 0.9892 587.6272 591.8412)" class="st1 st2 st3">ABOUT</text>
<polygon id="about" class="st4" points="635,606.9 635,559.9 611,540.9 548,553.9 548,639.9 553,639.9 565,625.9 "/>
<text transform="matrix(0.9934 -0.115 0.115 0.9934 225.6313 426.941)" class="st2 st5">C L I CK  O N  T H E   S H I N I N G    O  B J E C T S</text>
<text transform="matrix(0.9934 -0.115 0.115 0.9934 228.1153 448.3983)" class="st2 st5">T O   O  P  E  N    R E C I P E S</text>
<polygon id="leni" class="st6" points="959,438.8 947,438.8 932,454.8 925,468.8 912,481.8 906,491.8 906,520.9 906,530.8 
	925,540.9 936,540.9 959,545.8 968.2,545.8 980,527.8 992,520.9 992,506.8 992,477.8 985,462.8 "/>
<polygon id="pamela" class="st7" points="521,193.9 521,212.8 538,217.8 538,187.8 514,180.8 514,193.9 "/>
</svg>
