<?xml version="1.0" encoding="utf-8"?>
<!-- Generator: Adobe Illustrator 19.0.0, SVG Export Plug-In . SVG Version: 6.00 Build 0)  -->
<svg version="1.1" id="Capa_1" xmlns="http://www.w3.org/2000/svg" xmlns:xlink="http://www.w3.org/1999/xlink" x="0px" y="0px"
	 viewBox="1202 -561.7 3000 1963.6" style="enable-background:new 1202 -561.7 3000 1963.6;" xml:space="preserve">
<style type="text/css">
	.st0{fill:#FFFFFF;fill-opacity:0;}
	.st1{fill:#2D2B2B;}
	.st2{font-family:'Garamond-Bold';}
	.st3{font-size:28px;}
	.st4{enable-background:new    ;}
	.st5{fill:#CE3045;}
	.st6{font-family:'LithosPro-Regular';}
	.st7{font-size:25px;}
	.st8{fill:#494747;}
	.st9{fill:#494747;fill-opacity:0;}
</style>
<title>Kitchen-H</title>
<image style="overflow:visible;enable-background:new    ;" width="3926" height="2571" xlink:href="19504E45B9103A54.jpg"  transform="matrix(0.7659 0 0 0.7655 1198.5751 -562.1479)">
</image>
<polyline id="vejay" class="st0" points="2970.4,-209.2 2922.4,-209.2 2892.4,-188.2 2892.4,-164.2 2892.4,-137.2 2892.4,-110.2 
	2892.4,-77.2 2892.4,-53.2 3021.5,-53.2 3021.5,-98.2 3021.5,-146.2 3021.5,-185.2 3000.4,-209.2 "/>
<polygon id="heart" class="st0" points="2702,66.8 2685.4,39.8 2685.4,9.8 2703.4,-23.2 2721.4,-53.2 2745.4,-32.2 2766.4,-2.2 
	2775.4,18.8 2760.4,66.8 2751.4,90.8 "/>
<polygon id="martina" class="st0" points="3246.5,465.9 3336.5,465.9 3336.5,486.9 3357.5,531.9 3357.5,597.9 3231.5,597.9 
	3231.5,555.9 3231.5,531.9 3231.5,498.9 "/>
<text transform="matrix(1 0 0 1 3754.4868 981.9671)" class="st1 st2 st3">ABOUT</text>
<text transform="matrix(1 0 0 1 3770.0869 1015.5671)" class="st1 st2 st3">THIS</text>
<text transform="matrix(1 0 0 1 3740.7866 1049.1671)" class="st1 st2 st3">PROJECT</text>
<text transform="matrix(1 0 0 1 2702.2876 -296.1594)" class="st4"><tspan x="0" y="0" class="st5 st6 st7">FIND </tspan><tspan x="-13.3" y="30" class="st5 st6 st7">RECIPES</tspan><tspan x="-11.9" y="60" class="st5 st6 st7">INSIDE </tspan><tspan x="10.2" y="90" class="st5 st6 st7">THE</tspan><tspan x="-23" y="120" class="st5 st6 st7">SHINING</tspan><tspan x="-20.1" y="150" class="st5 st6 st7">OBJECTS</tspan><tspan x="87.5" y="150" class="st8 st6 st7">.</tspan></text>
<polygon id="chaveli_1_" class="st9" points="2145.4,819.9 2217.4,819.9 2229.4,792.9 2217.4,750.9 2187.4,702.9 2181.4,645.9 
	2145.4,609.9 2130.4,582.9 2112.4,582.9 2100.4,597.9 2100.4,645.9 2115.4,687.9 2130.4,741.9 2145.4,804.9 "/>
<polygon id="about" class="st9" points="3804.5,888.9 3783.5,903.9 3729.5,939.9 3729.5,1098.9 3867.5,1098.9 3867.5,921.9 
	3840.5,888.9 "/>
</svg>
